<?xml version="1.0" encoding="UTF-8" standalone="no"?>
<!-- Created with Inkscape (http://www.inkscape.org/) -->

<svg
   xmlns:dc="http://purl.org/dc/elements/1.1/"
   xmlns:cc="http://creativecommons.org/ns#"
   xmlns:rdf="http://www.w3.org/1999/02/22-rdf-syntax-ns#"
   xmlns:svg="http://www.w3.org/2000/svg"
   xmlns="http://www.w3.org/2000/svg"
   xmlns:sodipodi="http://sodipodi.sourceforge.net/DTD/sodipodi-0.dtd"
   xmlns:inkscape="http://www.inkscape.org/namespaces/inkscape"
   width="152.29561mm"
   height="34.289722mm"
   viewBox="0 0 152.29561 34.289722"
   version="1.1"
   id="svg6099"
   inkscape:version="0.92.2 (5c3e80d, 2017-08-06)"
   sodipodi:docname="ServiceTEKLogo.svg">
  <defs
     id="defs6093" />
  <sodipodi:namedview
     id="base"
     pagecolor="#ffffff"
     bordercolor="#666666"
     borderopacity="1.0"
     inkscape:pageopacity="0.0"
     inkscape:pageshadow="2"
     inkscape:zoom="0.35"
     inkscape:cx="350.08844"
     inkscape:cy="113.37091"
     inkscape:document-units="mm"
     inkscape:current-layer="surface4"
     showgrid="false"
     inkscape:window-width="1920"
     inkscape:window-height="1017"
     inkscape:window-x="-8"
     inkscape:window-y="-8"
     inkscape:window-maximized="1" />
  <metadata
     id="metadata6096">
    <rdf:RDF>
      <cc:Work
         rdf:about="">
        <dc:format>image/svg+xml</dc:format>
        <dc:type
           rdf:resource="http://purl.org/dc/dcmitype/StillImage" />
        <dc:title></dc:title>
      </cc:Work>
    </rdf:RDF>
  </metadata>
  <g
     inkscape:label="Layer 1"
     inkscape:groupmode="layer"
     id="layer1"
     transform="translate(-13.205766,-144.53966)">
    <g
       id="g6134"
       transform="matrix(0.35277777,0,0,0.35277777,3.5763801,110.28439)">
      <g
         transform="translate(159,46)"
         id="surface2">
        <path
           id="path6101"
           d="m 300,142 c -0.0664,0.86719 -1.63281,1.68359 -4.69922,2.44922 -3.10156,0.76562 -7.38281,1.43359 -12.85156,2 -5.5,0.60156 -11.86719,1.05078 -19.09766,1.35156 -7.23437,0.33203 -15.01953,0.5 -23.35156,0.5 -8.33203,0 -16.11719,-0.16797 -23.35156,-0.5 -7.23047,-0.30078 -13.59766,-0.75 -19.09766,-1.35156 -5.46875,-0.56641 -9.75,-1.23438 -12.85156,-2 C 181.63281,143.68359 180.06641,142.86719 180,142 c 0.0664,-0.89844 1.63281,-1.71484 4.69922,-2.44922 3.10156,-0.76562 7.38281,-1.44922 12.85156,-2.05078 5.5,-0.56641 11.86719,-1.01563 19.09766,-1.35156 7.23437,-0.33203 15.01953,-0.5 23.35156,-0.5 8.33203,0 16.11719,0.16797 23.35156,0.5 7.23047,0.33593 13.59766,0.78515 19.09766,1.35156 5.46875,0.56641 9.75,1.23437 12.85156,2 3.06641,0.76562 4.63281,1.60156 4.69922,2.5"
           style="fill:#e6e6e6;fill-opacity:1;fill-rule:evenodd;stroke:none"
           inkscape:connector-curvature="0" />
        <path
           id="path6103"
           d="m 251.19922,64.050781 c 1.19922,0 2.44922,0.300781 3.75,0.898438 1.73437,0.835937 3.01562,2.167969 3.85156,4 l 1.64844,3.699219 c 0.5,1.101562 1.26562,2.136718 2.30078,3.101562 1,0.964844 2.18359,1.785156 3.55078,2.449219 1.73438,0.835937 3.43359,1.25 5.09766,1.25 0.90234,0 1.78515,-0.117188 2.65234,-0.347657 l 4,-1 c 0.59766,-0.167968 1.21484,-0.25 1.84766,-0.25 1.26953,0 2.60156,0.332032 4,1 2.0664,0.964844 3.5664,2.347657 4.5,4.148438 L 290.5,86.949219 c 1.03516,1.902343 1.23437,3.785156 0.60156,5.652343 -0.66797,1.933594 -1.95312,3.183594 -3.85156,3.75 l -4.19922,1.296876 c -2.63281,0.835937 -4.43359,2.550782 -5.40234,5.152342 -1.13282,2.9336 -1.03125,5.89844 0.30078,8.89844 l 2.25,5 c 1,2.23437 1.21875,4.61719 0.65234,7.15234 -1,2.19922 -2.5664,3.89844 -4.70312,5.09766 l -4.89844,1.90234 c -1.10156,0.26563 -2.16797,0.39844 -3.19922,0.39844 -1.5,0 -3,-0.30078 -4.5,-0.89844 -2.40234,-1.53515 -4.05078,-3.51953 -4.94922,-5.95312 l -2,-5.39844 c -0.96875,-2.63281 -0.98437,-5 -0.0508,-7.10156 1.06641,-2.33203 2.81641,-3.86328 5.25,-4.59766 l 4.69922,-1.5 c 2.86719,-0.90234 4.83203,-2.68359 5.89844,-5.35156 1,-2.597658 0.86718,-5.316408 -0.39844,-8.148439 l -1.94922,-4.199219 c -1.23437,-2.734374 -3.18359,-4.734374 -5.85156,-6 -1.76563,-0.835937 -3.51563,-1.25 -5.25,-1.25 -0.89844,-0.03516 -1.81641,0.08203 -2.75,0.347657 l -4.4492,1.101562 c -0.83203,0.199219 -1.64844,0.300781 -2.44922,0.300781 -1.40234,0 -2.80078,-0.351562 -4.19922,-1.050781 -1.90234,-0.902343 -3.23437,-2.367187 -4,-4.402343 l -1.45312,-3.949219 c -0.69922,-1.933594 -0.58203,-3.632813 0.35156,-5.097657 0.93359,-1.46875 2.26562,-2.367187 4,-2.703124 0.30078,-0.06641 0.58203,-0.113282 0.85156,-0.148438 l 4.29688,-0.851562 c 0.30078,-0.09766 0.55078,-0.164063 0.75,-0.199219 0.43359,-0.09766 0.86718,-0.148438 1.30078,-0.148438"
           style="fill:#00abdc;fill-opacity:1;fill-rule:evenodd;stroke:none"
           inkscape:connector-curvature="0" />
        <path
           id="path6105"
           d="m 229.25,69.148438 c 1.26562,0 2.55078,0.316406 3.85156,0.953124 1.83203,0.863282 3.09766,2.28125 3.79688,4.25 l 1.40234,3.949219 c 1,2.664063 2.84766,4.683594 5.55078,6.050781 1.73047,0.863282 3.5,1.296876 5.29688,1.296876 1.0664,-0.03125 2.16797,-0.183594 3.30078,-0.449219 l 4.44922,-1.148438 c 0.70312,-0.167969 1.40234,-0.25 2.10156,-0.25 1.36719,-0.03516 2.75,0.300781 4.14844,1 2.16797,1.03125 3.68359,2.53125 4.55078,4.5 l 1.90234,4.25 c 0.9336,2.03125 0.96485,4.066407 0.0977,6.097657 -0.89844,2.101562 -2.41406,3.484372 -4.55078,4.152342 l -4.69922,1.44922 c -3.16406,0.93359 -5.41406,2.85156 -6.75,5.75 -0.69922,1.5 -1.06641,3.03516 -1.09766,4.60156 -0.0352,1.59766 0.26563,3.28125 0.89844,5.04688 l 1.94922,5.45312 c 0.86719,2.4336 0.86719,5.04688 0,7.84766 -1.63281,2.60156 -3.63281,4.55078 -6,5.85156 l -5.59766,2.14844 c -1.0664,0.26562 -2.13672,0.40234 -3.20312,0.40234 -1.69922,0 -3.34766,-0.33594 -4.94922,-1 -2.66406,-1.36719 -4.38281,-3.48437 -5.14844,-6.35156 l -1.60156,-5.94922 c -0.83203,-3 -0.5,-5.63281 1,-7.90234 1.43359,-2.59766 3.41797,-4.28125 5.94922,-5.04688 l 5.30078,-1.70312 c 3.46875,-1.09766 5.90234,-3.09766 7.30078,-6 0.73437,-1.5 1.16797,-3.01563 1.30078,-4.54688 0.0977,-1.5664 -0.10156,-3.05078 -0.60156,-4.453122 L 247.5,94.851562 C 246.5,92.117188 244.48437,90 241.44922,88.5 239.68359,87.632812 237.86719,87.199219 236,87.199219 c -1.13281,0 -2.30078,0.152343 -3.5,0.449219 l -5,1.25 c -0.80078,0.203124 -1.60156,0.300781 -2.39844,0.300781 -1.5,0 -3,-0.367188 -4.5,-1.097657 -2.16797,-0.867187 -3.55078,-2.433593 -4.15234,-4.703124 l -1.19922,-4.25 c -0.56641,-2.164063 -0.16797,-4 1.19922,-5.5 1.23437,-1.632813 2.73437,-2.613282 4.5,-2.949219 0.30078,-0.06641 0.58594,-0.117188 0.85156,-0.148438 l 4.80078,-1 c 0.33203,-0.101562 0.64844,-0.167969 0.94922,-0.199219 0.56641,-0.136718 1.13281,-0.203124 1.69922,-0.203124"
           style="fill:#003f66;fill-opacity:1;fill-rule:evenodd;stroke:none"
           inkscape:connector-curvature="0" />
        <path
           id="path6107"
           d="m 222.44922,51.101562 c 1.33594,0 2.80078,0.25 4.40234,0.75 1.86328,1.230469 3.03125,2.546876 3.5,3.949219 l 1.25,3.449219 c 0.56641,1.566406 0.39844,3.167969 -0.5,4.800781 -1.40234,1.632813 -3.13672,2.648438 -5.20312,3.050781 L 221.25,68.050781 c -3.13281,0.632813 -5.55078,2.03125 -7.25,4.199219 -1.73438,2.199219 -2.23438,4.683594 -1.5,7.449219 L 213.64844,84 c 0.70312,2.699219 2.46875,4.765625 5.30078,6.199219 1.86719,0.902343 3.96875,1.351562 6.30078,1.351562 1,0 2.01562,-0.06641 3.05078,-0.199219 l 5.05078,-1.300781 c 0.36328,-0.132812 0.6836,-0.234375 0.94922,-0.300781 0.59766,-0.167969 1.21484,-0.25 1.84766,-0.25 1.26953,0 2.68359,0.316406 4.25,0.949219 2.03515,1.234375 3.41797,2.867187 4.15234,4.902343 l 1.64844,4.597657 C 247.06641,102.35156 247,104.53516 246,106.5 c -1.46484,2.39844 -3.38281,3.96484 -5.75,4.69922 l -5.25,1.60156 c -1,0.33203 -1.96484,0.48438 -2.89844,0.44922 -1.53515,0.0352 -3.05078,-0.35156 -4.55078,-1.14844 -2.10156,-1.33593 -3.66797,-3.16797 -4.69922,-5.5 l -1.30078,-4.90234 c -0.83594,-3.000001 -2.69922,-5.214845 -5.60156,-6.648439 -2.06641,-1.066406 -4.16406,-1.601562 -6.30078,-1.601562 -1.13282,0 -2.29688,0.152343 -3.5,0.449219 l -5.54688,1.402343 c -1,0.234375 -2,0.347657 -3,0.347657 -1.5,0 -2.98437,-0.28125 -4.45312,-0.847657 -2.13282,-1.367187 -3.38282,-3.101562 -3.75,-5.199219 L 188.60156,85 c -0.36719,-2.265625 0.1836,-4.25 1.64844,-5.949219 1.63281,-1.933593 3.69922,-3.152343 6.19922,-3.652343 l 5.25,-1.046876 c 3.40234,-0.703124 5.96875,-2.152343 7.69922,-4.351562 1.70312,-2.167969 2.21875,-4.464844 1.55078,-6.898438 l -1,-3.703124 c -0.4336,-1.597657 -0.0156,-3.25 1.25,-4.949219 1.36719,-1.332031 3.0664,-2.164063 5.10156,-2.5 L 220.69922,51.25 c 0.5664,-0.101562 1.15234,-0.148438 1.75,-0.148438"
           style="fill:#94bd63;fill-opacity:1;fill-rule:evenodd;stroke:none"
           inkscape:connector-curvature="0" />
      </g>
      <g
         id="surface4">
        <text
           id="text6110"
           xml:space="preserve"
           font-size="50"
           style="font-size:50px;font-family:Audiowide;fill:#004166"
           x="24"
           y="146.14287"><![CDATA[Service]]></text>
        <text
           id="text6112"
           xml:space="preserve"
           transform="translate(175,178)"
           font-size="35"
           style="font-size:35px;font-family:Cantarell;fill:#96be64"><![CDATA[Solutions]]></text>
        <text
           id="text6114"
           xml:space="preserve"
           transform="translate(214,146)"
           font-size="50"
           style="font-size:50px;font-family:Audiowide;fill:#00acc8"><![CDATA[TEK]]></text>
      </g>
    </g>
  </g>
</svg>
